<svg version="1.1" xmlns="http://www.w3.org/2000/svg" xmlns:xlink="http://www.w3.org/1999/xlink" width="140.50036" height="102.53328" viewBox="0,0,140.50036,102.53328"><g transform="translate(-169.99976,-124)"><g data-paper-data="{&quot;isPaintingLayer&quot;:true}" fill-rule="nonzero" stroke-linecap="butt" stroke-linejoin="miter" stroke-miterlimit="10" stroke-dasharray="" stroke-dashoffset="0" style="mix-blend-mode: normal"><g data-paper-data="{&quot;index&quot;:null}"><g fill="#ffffff" stroke="#000000" stroke-width="1"><path d="M219.29588,177.185c0.668,0.301 1.351,0.627 2.056,0.979c-0.539,1.686 -1.351,3.802 -1.851,3.673c-0.53,-0.136 -0.567,-2.821 -0.205,-4.652z"/><path d="M194.61588,178.086c0.675,1.892 1.867,5.81 1.182,6.15c-0.683,0.337 -3.066,-3.06 -3.671,-5.09z"/><path d="M200.27288,175.821c0.584,1.93 1.58,5.907 0.881,6.208c-0.696,0.299 -2.909,-3.226 -3.418,-5.288z"/><path d="M203.79888,175.08c0.823,-0.161 1.599,-0.307 2.661,-0.37c0.317,2.108 0.669,5.604 -0.004,5.782c-0.692,0.182 -2.291,-3.251 -2.657,-5.412z"/><path d="M211.75088,175.004c-0.032,-0.902 0,0 0,0c0.044,1.926 -0.031,4.637 -0.603,4.708c-0.612,0.078 -1.637,-2.937 -1.83,-5.45c0.004,0.143 0.004,0.196 0.004,0.196c0,0 -0.004,-0.101 -0.004,-0.196c0,0 2.4,-0.16 2.433,0.742z"/><path d="M214.71688,175.518c0.789,0.198 1.562,0.43 2.333,0.701c-0.213,1.886 -0.625,4.324 -1.175,4.308c-0.602,-0.013 -1.213,-3.013 -1.158,-5.009z"/><path d="M181.69988,185.498c0.609,-0.755 1.433,-1.17 2.234,-1.631c1.275,1.635 3.22,4.414 2.731,4.935c-0.52,0.555 -3.688,-1.634 -4.965,-3.304z"/><path d="M189.03188,180.564c0.944,1.754 2.682,5.425 2.056,5.875c-0.624,0.448 -3.464,-2.504 -4.358,-4.406z"/><path d="M178.85888,191.061c0.352,-0.879 0.697,-1.748 1.093,-2.598c1.451,1.445 3.312,3.53 2.93,4.068c-0.34,0.48 -2.402,-0.386 -4.023,-1.47z"/><path d="M191.92088,191.775c-0.72,-0.034 -1.466,-0.09 -2.237,-0.158c-0.031,-1.783 0.062,-4.075 0.573,-4.137c0.542,-0.067 1.429,2.444 1.664,4.295z"/><path d="M214.75588,185.504c-0.709,-1.434 -2.008,-4.426 -1.494,-4.77c0.514,-0.34 2.713,2.11 3.381,3.662z"/><path d="M210.06788,187.332c-0.795,-1.837 -2.233,-5.656 -1.575,-6.045c0.659,-0.389 3.254,2.82 3.989,4.799z"/><path d="M207.32188,187.951c-0.764,0.371 -1.482,0.714 -2.499,1.054c-0.78,-1.963 -1.903,-5.26 -1.289,-5.609c0.631,-0.355 2.95,2.557 3.788,4.555z"/><path d="M199.63388,189.815c0.233,0.867 0,0 0,0c-0.478,-1.857 -1.009,-4.508 -0.47,-4.729c0.577,-0.233 2.245,2.421 2.996,4.812c-0.035,-0.139 -0.049,-0.189 -0.049,-0.189c0,0 0.028,0.095 0.049,0.189c0,0 -2.293,0.784 -2.526,-0.083z"/><path d="M197.18588,190.948c-0.806,0.102 -1.602,0.172 -2.414,0.202c-0.4,-1.847 -0.781,-4.291 -0.26,-4.479c0.57,-0.208 2.093,2.384 2.674,4.277z"/><path d="M218.76688,183.609c-0.742,-1.06 -2.148,-3.3 -1.774,-3.648c0.374,-0.347 2.444,1.33 3.166,2.492z"/></g><path d="M185.50688,146.787c20.677,-19.056 42.912,-10.438 54.747,1.809c0.169,0.28 0.406,0.524 0.613,0.607c0.717,0.286 23.428,-14.237 26.678,-11.441c4.525,3.895 -7.287,22.431 -9.458,26.724c6.865,3.862 15.995,19.257 18.362,25.217l0.302,0.232c3.352,-2.58 8.537,-4.795 12.659,-5.139c3.467,-0.286 21.245,-0.357 18.664,7.146c-0.831,2.418 -5.315,5.173 -7.388,6.306c-8.948,4.89 -19.835,0.972 -22.385,-0.006c1.076,7.271 2.037,16.655 -2.068,22.28c-0.992,1.354 -3.437,3.476 -5.185,2.709c-2.424,-1.065 -3.938,-5.58 -4.58,-7.192c-1.801,-4.528 -1.3,-13.485 4.796,-21.388c-12.469,-14.279 -31.096,-6.423 -35.255,-2.709c-4.572,4.082 -10.509,8.724 -22.621,9.454c-7.438,-0.828 -19.602,-3.268 -24.907,-8.999c10.82,-1.562 29.961,-3.213 36.43,-13.578c-19.361,-9.773 -39.021,-4.521 -48.311,13.693c-3.779,-5.021 -3.561,-13.228 -3.396,-15.867c0.746,-12.122 3.605,-21.841 12.303,-29.858z" fill="#2f8eff" stroke="none" stroke-width="1"/><path d="M206.19488,132.857c6.127,-1.045 23.924,-0.296 34.894,13.928c4.554,-3.703 22.714,-14.805 28.098,-12.151c2.268,1.117 2.295,5.513 1.771,7.845c-1.298,5.772 -6.931,16.021 -10.062,20.889c5.57,4.281 13.389,14.242 17.016,23.485c3.553,-3.604 7.95,-3.818 12.537,-4.762c4.221,-0.867 21.067,0.913 20.003,8.405c-0.889,6.244 -10.782,10.963 -15.857,11.86c-3.455,0.611 -8.577,1.189 -11.839,-0.326c-0.77,-0.357 -1.507,-0.789 -2.29,-1.121c1.626,6.874 1.34,13.091 -1.858,19.38c-0.853,1.676 -3.458,5.763 -5.271,6.164c-4.733,1.047 -8.346,-8.427 -9.333,-12.095c-1.891,-7.034 0.559,-13.74 4.477,-19.236c-7.657,-6.771 -17.628,-8.025 -26.381,-3.832c-0.746,0.357 -1.475,0.883 -2.218,1.375c-12.382,10.835 -17.034,10.835 -22.388,11.565l-0.002,-0.002c-5.632,1.438 -27.396,-5.024 -31.43,-12.018c-0.164,-0.283 0.597,-0.925 0.863,-1.027c2.139,-0.797 29.639,-3.807 34.482,-11.8c-12.838,-5.783 -32.494,-5.549 -43.835,16.399c-5.294,-3.852 -6.919,-10.383 -7.345,-14.944c-2.172,-23.188 11.341,-43.778 35.968,-47.981zM176.59988,192.514c9.289,-18.214 28.949,-23.466 48.31,-13.693c-6.469,10.365 -25.609,12.015 -36.43,13.578c5.306,5.731 17.469,8.171 24.907,8.999c12.113,-0.731 18.05,-5.373 22.622,-9.455c4.159,-3.714 22.786,-11.57 35.255,2.709c-6.096,7.902 -6.597,16.859 -4.796,21.388c0.642,1.612 2.156,6.127 4.58,7.192c1.748,0.767 4.193,-1.354 5.185,-2.709c4.105,-5.625 3.144,-15.01 2.068,-22.28c2.55,0.978 13.437,4.896 22.385,0.006c2.073,-1.133 6.557,-3.888 7.388,-6.306c2.581,-7.504 -15.197,-7.433 -18.664,-7.146c-4.122,0.344 -9.307,2.559 -12.659,5.139l-0.302,-0.232c-2.367,-5.96 -11.497,-21.355 -18.362,-25.217c2.171,-4.293 13.983,-22.829 9.458,-26.724c-3.25,-2.796 -25.961,11.727 -26.678,11.441c-0.208,-0.083 -0.444,-0.327 -0.613,-0.607c-11.835,-12.247 -34.07,-20.865 -54.747,-1.809c-8.698,8.017 -11.557,17.736 -12.303,29.86c-0.165,2.638 -0.384,10.844 3.396,15.866z" fill="#000000" stroke="none" stroke-width="1"/><path d="M173.15392,176.64588c0.746,-12.124 3.61194,-21.86637 12.30994,-29.88337c20.677,-19.056 42.95424,-10.4625 54.78924,1.7845c0.169,0.28 0.406,0.52399 0.614,0.60699c0.717,0.286 23.45479,-14.22907 26.70479,-11.43307c4.525,3.895 -7.27622,22.44034 -9.44722,26.73334c6.865,3.862 16.00529,19.30344 18.37229,25.26344l0.20589,0.2044c3.352,-2.58 8.53532,-4.7865 12.65732,-5.1305c3.467,-0.287 21.34388,-0.34354 18.76288,7.16046c-0.831,2.418 -5.31644,5.17884 -7.38944,6.31184c-8.948,4.89 -19.83798,0.97939 -22.38798,0.00139c1.076,7.27 2.02498,16.6705 -2.08002,22.2955c-0.992,1.355 -3.44123,3.47929 -5.18923,2.71229c-2.424,-1.065 -3.9953,-5.66196 -4.6373,-7.27396c-1.801,-4.529 -1.316,-13.46733 4.78,-21.36933c-12.469,-14.279 -31.06896,-6.35406 -35.22796,-2.64006c-4.572,4.082 -10.53028,8.7085 -22.64328,9.4395c-7.438,-0.828 -19.61051,-3.28727 -24.91651,-9.01827c10.821,-1.563 29.95959,-3.22717 36.42859,-13.59217c-19.361,-9.773 -38.92204,-4.52873 -48.21104,13.68527c-3.78,-5.022 -3.65996,-13.22019 -3.49496,-15.85819z" data-paper-data="{&quot;noHover&quot;:false,&quot;origItem&quot;:[&quot;Path&quot;,{&quot;applyMatrix&quot;:true,&quot;segments&quot;:[[[307.296,176.648],[0.165,2.638],[-0.746,-12.124]],[[294.993,146.788],[8.698,8.017],[-20.677,-19.056]],[[240.246,148.597],[11.835,-12.247],[-0.169,0.28]],[[239.633,149.204],[0.208,-0.083],[-0.717,0.286]],[[212.955,137.763],[3.25,-2.796],[-4.525,3.895]],[[222.413,164.487],[-2.171,-4.293],[-6.865,3.862]],[[204.051,189.704],[2.367,-5.96],[0,0]],[[203.749,189.936],[0,0],[-3.352,-2.58]],[[191.09,184.797],[4.122,0.344],[-3.467,-0.287]],[[172.426,191.943],[-2.581,-7.504],[0.831,2.418]],[[179.814,198.249],[-2.073,-1.133],[8.948,4.89]],[[202.199,198.243],[-2.55,0.978],[-1.076,7.27]],[[204.267,220.523],[-4.105,-5.625],[0.992,1.355]],[[209.452,223.232],[-1.748,0.767],[2.424,-1.065]],[[214.032,216.04],[-0.642,1.612],[1.801,-4.529]],[[209.236,194.652],[6.096,7.902],[12.469,-14.279]],[[244.491,191.943],[-4.159,-3.714],[4.572,4.082]],[[267.113,201.398],[-12.113,-0.731],[7.438,-0.828]],[[292.02,192.399],[-5.306,5.731],[-10.821,-1.563]],[[255.59,178.821],[6.469,10.365],[19.361,-9.773]],[[303.9,192.514],[-9.289,-18.214],[3.78,-5.022]]],&quot;closed&quot;:true,&quot;fillColor&quot;:[0,0,0,1]}]}" fill="#4b5d81" stroke="none" stroke-width="0.5"/><path d="M230.06988,183.516c0.42,-1.173 1.068,-2.381 1.162,-3.723c0.366,-5.25 -1.541,-12.062 -5.067,-15.809c-0.8,-0.85 -2.735,-1.56 -1.574,-2.76c0.63,-0.648 2.767,1.275 3.663,2.136c4.207,4.042 7.384,16.304 2.904,21.322c-0.629,0.704 -1.513,0.03 -1.088,-1.166z" fill="#000000" stroke="none" stroke-width="1"/><path d="M237.85188,164.121c1.53,3.207 2.486,7.953 2.107,11.333c-0.332,2.02 -0.498,4.666 -2.398,5.714c-0.922,0.509 -1.43,-0.475 -1.018,-1.388c1.679,-3.744 2.365,-6.885 0.699,-11.708c-0.519,-1.511 -0.842,-1.77 -1.576,-3.455c-0.843,-1.931 1.209,-2.54 2.186,-0.496z" fill="#000000" stroke="none" stroke-width="1"/></g><g data-paper-data="{&quot;index&quot;:null}" stroke="none" stroke-width="1"><path d="M241.56788,206.641c-0.584,1.387 -3.27,1.568 -4.494,1.721c-5.815,0.712 -12.611,-2.865 -16.057,-7.895c-0.774,-1.133 -1.33,-5.035 -3.371,-4.146c5.437,-9.734 13.379,-7.554 15.271,-6.86c-0.257,0.361 -0.385,1.045 -0.431,1.396c-1.006,7.808 10.227,13.066 9.082,15.784z" fill="#4b5d81"/><path d="M217.64588,196.32c2.041,-0.889 2.597,3.014 3.371,4.146c3.445,5.029 10.241,8.606 16.057,7.895c1.224,-0.152 3.91,-0.334 4.494,-1.721c1.145,-2.718 -10.087,-7.976 -9.082,-15.785c0.046,-0.351 0.174,-1.034 0.431,-1.396c0.204,-0.287 0.489,-0.371 0.881,0.08c1.707,9.931 12.418,13.063 12.592,16.747c0.195,4.15 -10.781,4.286 -13.341,3.896c-2.462,-0.377 -4.744,-1.031 -6.974,-2.18c-4.009,-2.061 -8.249,-4.464 -9.456,-8.246c-0.292,-0.914 0.095,-3.029 1.027,-3.436z" fill="#000000"/></g><g data-paper-data="{&quot;index&quot;:null}" stroke="none" stroke-width="1"><path d="M212.11788,130.383c2.905,2.694 4.61,7.392 2.274,10.146c-2.125,2.504 -6.113,1.892 -8.979,-0.186c-2.557,-1.855 -4.15,-4.842 -2.869,-7.894c1.61,-3.829 6.63,-4.791 9.574,-2.066z" fill="#ffffff"/><path d="M205.22988,138.937c-1.643,0.314 -3.17,-0.616 -3.408,-2.076c-0.238,-1.46 0.901,-2.898 2.547,-3.212c1.644,-0.313 3.171,0.617 3.408,2.077c0.241,1.461 -0.901,2.898 -2.547,3.211z" fill="#000000"/><path d="M200.25188,132.648c0.818,-3.118 4.346,-5.763 7.199,-6.16c6.484,-0.902 12.686,6.57 10.089,13.44c-3.122,8.263 -20.231,3.952 -17.288,-7.28zM205.41388,140.343c2.865,2.078 6.854,2.69 8.979,0.186c2.336,-2.754 0.631,-7.452 -2.274,-10.146c-2.944,-2.725 -7.964,-1.763 -9.573,2.066c-1.282,3.052 0.311,6.039 2.868,7.894z" fill="#000000"/><path d="M204.84788,127.458c1.305,-1.117 10.721,-4.8 11.715,-2.944c0.123,0.228 0.035,0.69 -0.17,0.839c-1.81,1.314 -6.849,1.195 -9.352,2.114c-0.63,0.231 -1.662,0.718 -2.318,0.583c-0.058,-0.177 -0.025,-0.465 0.125,-0.592z" fill="#000000"/></g><g data-paper-data="{&quot;index&quot;:null}" stroke="none" stroke-width="1"><path d="M185.06788,141.125c3.947,1.664 2.334,10.118 -3.346,9.064c-2.103,-0.39 -2.887,-3.289 -2.445,-5.828c0.487,-2.798 2.973,-4.423 5.791,-3.236z" fill="#ffffff"/><path d="M181.22088,148.867c-1.111,0.586 -2.375,0.262 -2.82,-0.727c-0.444,-0.989 0.096,-2.265 1.207,-2.851c1.113,-0.586 2.375,-0.261 2.822,0.727c0.444,0.988 -0.096,2.264 -1.209,2.851z" fill="#000000"/><path d="M180.12988,139.437c1.812,-1.069 4.886,-1.14 6.573,0.295c6.081,5.168 0.084,16.647 -7.182,12.083c-4.25,-2.67 -3.496,-9.951 0.609,-12.378zM181.72288,150.189c5.68,1.054 7.293,-7.4 3.346,-9.064c-2.818,-1.187 -5.305,0.438 -5.791,3.236c-0.442,2.539 0.342,5.438 2.445,5.828z" fill="#000000"/><path d="M183.93588,139.119c-0.402,0.28 -1.207,0.256 -1.687,0.285c-1.892,0.116 -5.206,1.655 -6.731,1.308c-0.172,-0.039 -0.347,-0.32 -0.322,-0.507c0.199,-1.521 7.367,-1.806 8.514,-1.443c0.125,0.041 0.22,0.222 0.226,0.357z" fill="#000000"/></g></g></g></svg>