<svg version="1.1" xmlns="http://www.w3.org/2000/svg" xmlns:xlink="http://www.w3.org/1999/xlink" width="140.44925" height="93.14332" viewBox="0,0,140.44925,93.14332"><g transform="translate(-170.99937,-128.99947)"><g data-paper-data="{&quot;isPaintingLayer&quot;:true}" fill-rule="nonzero" stroke-linecap="butt" stroke-linejoin="miter" stroke-miterlimit="10" stroke-dasharray="" stroke-dashoffset="0" style="mix-blend-mode: normal"><g data-paper-data="{&quot;index&quot;:null}"><g fill="#ffffff" stroke="#000000" stroke-width="1"><path d="M224.57599,188.476c-0.934,-0.166 -2.807,-0.598 -2.764,-0.979c0.041,-0.382 2.015,-0.598 2.984,-0.369z"/><path d="M223.36699,193.537c-0.918,-0.414 -2.747,-1.351 -2.605,-1.735c0.142,-0.385 2.238,-0.091 3.181,0.399z"/><path d="M224.42699,190.573c-0.931,-0.164 -2.804,-0.596 -2.762,-0.979c0.042,-0.381 2.015,-0.596 2.984,-0.367z"/><path d="M224.78999,185.388c-1.054,0.059 -3.195,0.065 -3.244,-0.361c-0.049,-0.424 2.043,-1.161 3.15,-1.16z"/><path d="M222.00899,196.583c-0.795,-0.629 -2.345,-1.987 -2.117,-2.325c0.227,-0.337 2.191,0.463 2.99,1.169z"/><path d="M219.72999,198.846c-0.701,-0.737 -2.049,-2.3 -1.777,-2.601c0.273,-0.304 2.107,0.765 2.8,1.578z"/><path d="M224.82299,182.066c-1.145,0.207 -3.496,0.507 -3.602,0.047c-0.109,-0.459 2.084,-1.553 3.299,-1.701z"/><path d="M224.07099,178.466c-1.094,0.408 -3.351,1.115 -3.539,0.681c-0.188,-0.434 1.787,-1.896 2.956,-2.256z"/><path d="M222.70099,174.791c-1.142,0.619 -3.522,1.752 -3.793,1.305c-0.273,-0.447 1.679,-2.368 2.913,-2.949z"/><path d="M220.48099,171.239c-1.058,0.756 -3.286,2.175 -3.609,1.765c-0.322,-0.411 1.383,-2.558 2.536,-3.288z"/><path d="M214.77499,203.071c-0.637,-0.793 -1.846,-2.471 -1.549,-2.746c0.299,-0.281 2.033,0.947 2.654,1.818z"/><path d="M217.57099,201.151c-0.701,-0.736 -2.045,-2.299 -1.774,-2.603c0.273,-0.302 2.108,0.767 2.801,1.579z"/><path d="M201.98499,209.103c-0.465,-1.064 -1.309,-3.273 -0.901,-3.49c0.408,-0.217 1.963,1.654 2.393,2.8z"/><path d="M205.67499,208.422c-0.468,-1.065 -1.561,-3.842 -1.156,-4.059c0.406,-0.217 2.214,2.223 2.646,3.369z"/><path d="M208.87799,206.826c-0.473,-1.062 -1.291,-3.437 -0.885,-3.654c0.409,-0.217 1.961,1.655 2.396,2.801z"/><path d="M212.19599,205.152c-0.568,-0.848 -1.625,-2.625 -1.308,-2.875c0.319,-0.248 1.943,1.127 2.486,2.05z"/><path d="M217.46199,167.86c-1.057,1.074 -3.308,3.143 -3.758,2.742c-0.45,-0.401 1.064,-3.192 2.235,-4.257z"/><path d="M193.69599,155.882c-0.212,1.779 -0.826,5.366 -1.531,5.324c-0.705,-0.042 -1.294,-3.757 -0.969,-5.611z"/><path d="M199.32399,156.652c-0.307,1.765 -1.104,5.314 -1.807,5.235c-0.699,-0.079 -1.1,-3.821 -0.678,-5.655z"/><path d="M205.05099,158.133c-0.543,1.705 -1.82,5.108 -2.504,4.93c-0.685,-0.178 -0.565,-3.939 0.103,-5.696z"/><path d="M209.91199,160.586c-0.668,1.461 -2.175,4.354 -2.766,4.12c-0.593,-0.235 -0.078,-3.577 0.706,-5.07z"/><path d="M214.11099,163.865c-0.865,1.352 -2.751,4.004 -3.307,3.688c-0.553,-0.316 0.414,-3.552 1.396,-4.92z"/><path d="M182.35999,155.139c0.399,1.745 1.032,5.329 0.354,5.535c-0.677,0.205 -2.484,-3.082 -2.804,-4.937z"/><path d="M188.04699,155.314c0.066,1.791 0.012,5.431 -0.691,5.501c-0.703,0.07 -1.858,-3.506 -1.822,-5.389z"/><path d="M176.93399,156.458c0.634,1.671 1.756,5.131 1.111,5.43c-0.641,0.298 -2.884,-2.701 -3.451,-4.493z"/></g><path d="M181.62299,145.68c15.899,-12.58 40.735,-9.937 64.429,10.459c0.016,0.023 0.027,0.048 0.051,0.069c0.03,0.026 0.072,0.038 0.104,0.062c0.018,0.015 0.035,0.029 0.053,0.044l0.009,-0.008c0.119,0.076 0.257,0.127 0.405,0.167c0.007,0.002 0.014,0.011 0.021,0.013c0.002,0 0.005,-0.001 0.007,-0.001c5.099,1.271 26.371,-17.263 29.262,-9.493c2.111,5.676 -12.269,23.271 -12.065,23.49c1.195,1.295 21.843,14.308 23.711,15.456c0.574,-0.799 0.493,-1.903 0.745,-2.836c2.474,-9.083 9.572,-16.984 19.566,-16.259c4.025,10.976 -7.011,22.591 -16.24,23.854c3.145,4.018 9.77,14.127 8.656,22.693c-0.116,0.895 -0.522,3.069 -0.895,3.836c-0.402,0.821 -1.146,1.51 -2.003,1.795c-2.091,0.701 -5.092,-1.021 -6.848,-2.127c-4.993,-3.146 -7.062,-15.918 -5.198,-23.834c0.094,-0.399 -4.111,-0.244 -4.626,-0.244c-9.355,0.004 -20.634,2.509 -29.167,6.354c0,0 -5.394,3.004 -6.839,3.9c-4.822,2.99 -11.291,7.043 -17.864,9.799l0.001,0.001c-0.967,0.339 -1.932,0.689 -2.922,0.956c-6.377,1.71 -13.711,1.083 -19.102,-3.071c7.721,-2.216 10.643,-4.819 15.65,-10.774c1.879,-2.231 4.449,-6.771 5.029,-9.645c0.787,-3.893 0.933,-8.6 -0.371,-12.146c-5.596,-15.255 -16.358,-21.321 -28.275,-24.248c-6.16,-1.512 -16.803,-0.76 -22.505,1.191c2.208,-4.551 4.138,-7.014 7.221,-9.453z" fill="#2f8eff" stroke="none" stroke-width="1"/><path d="M171.00899,157.203c0.406,-4.838 6.068,-12.301 9.83,-15.077c11.5,-8.498 26.899,-8.996 37.588,-5.308c9.3,3.209 21.121,10.989 28.353,18.042c5.789,-3.564 26.001,-17.617 30.768,-10.324c1.822,2.787 0.468,6.735 -0.699,9.499c-1.403,3.323 -7.499,14.384 -8.804,16.921c6.146,4.046 18.448,12.24 18.448,12.24c1.415,-9.655 10.471,-18.333 19.985,-19.376c1.326,-0.147 4.246,-0.471 4.798,1.228c0.086,0.263 0.149,2.774 0.159,3.212c0.113,5.056 -0.44,8.858 -3.048,13.233c-1.589,2.666 -2.895,4.667 -5.59,6.333c-3.218,1.99 -5.641,2.986 -8.711,3.546c4.069,3.294 8.092,12.164 8.944,17.349c0.608,3.692 -0.261,10.733 -3.68,12.947c-1.934,1.252 -4.472,-0.283 -6.289,-1.04c-9.615,-4.004 -12.146,-15.969 -10.114,-25.679c-10.975,-0.333 -21.154,2.102 -31.114,6.396c-4.197,1.81 -17.432,10.171 -22.313,12.4c-2.15,0.982 -7.264,2.23 -8.106,2.348c-7.357,1.026 -14.02,0.228 -20.217,-4.301c-1.137,-0.83 -2.828,-1.69 -0.932,-2.837c8.8,-0.448 15.527,-5.846 20.358,-12.947c5.05,-7.429 3.39,-17.83 -1.353,-25.05c-5.449,-8.297 -14.928,-13.715 -24.596,-14.889c-5.412,-0.657 -11.229,-0.745 -16.562,0.502c-1.833,0.428 -4.541,1.906 -5.895,2.145c-0.985,0.175 -1.277,-0.709 -1.208,-1.513zM196.90699,153.942c11.917,2.927 22.68,8.993 28.275,24.248c1.304,3.546 1.158,8.253 0.371,12.146c-0.58,2.873 -3.15,7.413 -5.029,9.645c-5.008,5.955 -7.93,8.559 -15.65,10.774c5.391,4.154 12.725,4.781 19.102,3.071c0.99,-0.267 1.955,-0.617 2.922,-0.956l-0.001,-0.001c6.573,-2.756 13.042,-6.809 17.864,-9.799c1.446,-0.896 6.839,-3.9 6.839,-3.9c8.533,-3.845 19.812,-6.35 29.167,-6.354c0.515,0 4.72,-0.155 4.626,0.244c-1.864,7.916 0.205,20.688 5.198,23.834c1.756,1.105 4.757,2.828 6.848,2.127c0.857,-0.285 1.601,-0.974 2.003,-1.795c0.373,-0.767 0.779,-2.941 0.895,-3.836c1.114,-8.566 -5.511,-18.676 -8.656,-22.693c9.229,-1.264 20.265,-12.878 16.24,-23.854c-9.994,-0.726 -17.092,7.175 -19.566,16.259c-0.252,0.933 -0.171,2.037 -0.745,2.836c-1.868,-1.147 -22.516,-14.161 -23.711,-15.456c-0.204,-0.219 14.176,-17.814 12.065,-23.49c-2.891,-7.771 -24.163,10.764 -29.262,9.493c-0.01,-0.002 -0.018,-0.009 -0.028,-0.012c-0.148,-0.04 -0.286,-0.092 -0.405,-0.167l-0.009,0.008c-0.018,-0.015 -0.035,-0.029 -0.053,-0.044c-0.033,-0.023 -0.075,-0.035 -0.104,-0.062c-0.024,-0.021 -0.035,-0.046 -0.051,-0.069c-23.694,-20.396 -48.53,-23.039 -64.429,-10.459c-3.083,2.439 -5.013,4.902 -7.221,9.453c5.702,-1.951 16.345,-2.703 22.505,-1.191z" fill="#000000" stroke="none" stroke-width="1"/><path d="M174.35479,155.1165c2.208,-4.551 4.14138,-7.02157 7.22438,-9.46057c15.899,-12.58 40.78856,-9.96197 64.48256,10.43403c0.016,0.023 0.02714,0.04803 0.05114,0.06903c0.029,0.027 0.07125,0.03905 0.10425,0.06205c0.018,0.015 0.03513,0.02903 0.05313,0.04403l0.00902,-0.008c0.119,0.075 0.25793,0.1272 0.40593,0.1672c0.01,0.003 0.01806,0.01001 0.02806,0.01201c5.099,1.271 26.39654,-17.24914 29.28754,-9.47814c2.111,5.676 -12.25882,23.28772 -12.05482,23.50672c1.195,1.295 21.84541,14.33398 23.71341,15.48098c0.574,-0.799 0.39385,-1.91563 0.64585,-2.84863c2.474,-9.084 9.671,-16.98897 19.665,-16.26297c4.025,10.976 -7.01162,22.61046 -16.24062,23.87446c3.145,4.017 9.76442,14.14075 8.65042,22.70675c-0.116,0.895 -0.52344,3.07129 -0.89644,3.83829c-0.402,0.821 -1.14708,1.51155 -2.00408,1.79655c-2.091,0.701 -5.17192,-1.08208 -6.92792,-2.18708c-4.993,-3.146 -7.07008,-15.90288 -5.20608,-23.81888c0.094,-0.399 -4.01651,-0.21131 -4.53151,-0.21131c-9.355,0.004 -20.65911,2.53691 -29.19211,6.38191c0,0 -5.40846,3.00863 -6.85446,3.90463c-4.822,2.99 -11.31714,7.03937 -17.89014,9.79537l0.001,0.001c-0.967,0.339 -1.93466,0.68777 -2.92466,0.95477c-6.377,1.71 -13.72625,1.07121 -19.11725,-3.08279c7.72,-2.215 10.64452,-4.81633 15.65252,-10.77133c1.879,-2.232 4.44374,-6.7781 5.02374,-9.6511c0.787,-3.893 0.92339,-8.63081 -0.38061,-12.17681c-5.595,-15.255 -16.26425,-21.29552 -28.18125,-24.22252c-6.16,-1.512 -16.89397,-0.80067 -22.59597,1.15033z" data-paper-data="{&quot;noHover&quot;:false,&quot;origItem&quot;:[&quot;Path&quot;,{&quot;applyMatrix&quot;:true,&quot;selected&quot;:true,&quot;segments&quot;:[[[196.90699,153.942],[-6.16,-1.512],[11.917,2.927],7],[[225.18199,178.19],[-5.595,-15.255],[1.304,3.546],7],[[225.55299,190.336],[0.787,-3.893],[-0.58,2.873],7],[[220.52399,199.981],[1.879,-2.232],[-5.008,5.955],7],[[204.87399,210.755],[7.72,-2.215],[5.391,4.154],7],[[223.97599,213.826],[-6.377,1.71],[0.99,-0.267],7],[[226.89799,212.87],[-0.967,0.339],[0,0],7],[[226.89699,212.869],[0,0],[6.573,-2.756],7],[[244.76099,203.07],[-4.822,2.99],[1.446,-0.896],7],[[251.59999,199.17],[0,0],[8.533,-3.845],7],[[280.76699,192.816],[-9.355,0.004],[0.515,0],7],[[285.39299,193.06],[0.094,-0.399],[-1.864,7.916],7],[[290.59099,216.894],[-4.993,-3.146],[1.756,1.105],7],[[297.43899,219.021],[-2.091,0.701],[0.857,-0.285],7],[[299.44199,217.226],[-0.402,0.821],[0.373,-0.767],7],[[300.33699,213.39],[-0.116,0.895],[1.114,-8.566],7],[[291.68099,190.697],[3.145,4.017],[9.229,-1.264],7],[[307.92099,166.843],[4.025,10.976],[-9.994,-0.726],7],[[288.35499,183.102],[2.474,-9.084],[-0.252,0.933],7],[[287.60999,185.938],[0.574,-0.799],[-1.868,-1.147],7],[[263.89899,170.482],[1.195,1.295],[-0.204,-0.219],7],[[275.96399,146.992],[2.111,5.676],[-2.891,-7.771],7],[[246.70199,156.485],[5.099,1.271],[-0.01,-0.002],7],[[246.67399,156.473],[0.01,0.003],[-0.148,-0.04],7],[[246.26899,156.306],[0.119,0.075],[0,0],7],[[246.25999,156.314],[0,0],[-0.018,-0.015],7],[[246.20699,156.27],[0.018,0.015],[-0.033,-0.023],7],[[246.10299,156.208],[0.029,0.027],[-0.024,-0.021],7],[[246.05199,156.139],[0.016,0.023],[-23.694,-20.396],7],[[181.62299,145.68],[15.899,-12.58],[-3.083,2.439],7],[[174.40199,155.133],[2.208,-4.551],[5.702,-1.951],7]],&quot;closed&quot;:true,&quot;fillColor&quot;:[0,0,0,1]}]}" fill="#4b5d81" stroke="none" stroke-width="0.5"/><path d="M230.77199,191.23c0.824,-0.959 1.891,-1.864 2.447,-3.106c2.16,-4.856 2.556,-12.048 0.26,-16.932c-0.521,-1.107 -2.242,-2.508 -0.652,-3.213c0.855,-0.381 2.367,2.247 2.98,3.402c2.884,5.418 1.92,18.269 -4.332,21.365c-0.879,0.436 -1.547,-0.538 -0.703,-1.516z" fill="#000000" stroke="none" stroke-width="1"/><path d="M245.27099,175.691c0.458,3.625 -0.193,8.499 -1.73,11.568c-1.025,1.8 -2.097,4.255 -4.379,4.539c-1.113,0.142 -1.289,-0.983 -0.56,-1.7c2.983,-2.932 4.748,-5.663 4.706,-10.872c-0.014,-1.632 -0.249,-1.998 -0.419,-3.876c-0.195,-2.152 2.091,-1.963 2.382,0.341z" fill="#000000" stroke="none" stroke-width="1"/></g><g data-paper-data="{&quot;index&quot;:null}" stroke="none" stroke-width="1"><path d="M251.92699,213.919c-0.582,1.295 -3.254,1.467 -4.472,1.606c-5.788,0.664 -12.551,-2.678 -15.978,-7.373c-0.698,-0.96 -1.223,-4.029 -2.82,-3.985c3.22,-9.386 12.646,-6.677 14.507,-6.035c-0.156,0.343 -0.24,0.785 -0.275,1.04c-1.002,7.295 10.177,12.208 9.038,14.747z" fill="#4b5d81"/><path d="M228.12299,204.277c0.192,-0.079 0.367,-0.106 0.534,-0.11c1.598,-0.044 2.122,3.025 2.82,3.985c3.427,4.695 10.189,8.037 15.978,7.373c1.218,-0.14 3.89,-0.312 4.472,-1.606c1.139,-2.539 -10.04,-7.452 -9.038,-14.747c0.035,-0.255 0.12,-0.697 0.275,-1.04c0.205,-0.45 0.531,-0.729 1.03,-0.188c1.698,9.274 12.358,12.203 12.531,15.642c0.195,3.877 -10.731,4.004 -13.276,3.642c-2.45,-0.35 -4.717,-0.959 -6.94,-2.033c-3.985,-1.928 -8.209,-4.17 -9.41,-7.702c-0.292,-0.862 0.096,-2.839 1.024,-3.216z" fill="#000000"/></g><g data-paper-data="{&quot;index&quot;:null}" stroke="none" stroke-width="1"><path d="M220.52799,130.828c1.579,-0.865 12.219,-2.748 12.952,-0.708c0.089,0.25 -0.083,0.694 -0.326,0.803c-2.15,0.966 -7.48,-0.108 -10.296,0.331c-0.71,0.111 -1.888,0.4 -2.562,0.141c-0.034,-0.189 0.052,-0.469 0.232,-0.567z" fill="#000000"/><path d="M214.75299,135.129c1.408,-2.953 5.608,-4.921 8.711,-4.773c7.041,0.332 12.33,8.959 8.385,15.313c-4.747,7.644 -22.169,0.096 -17.096,-10.54zM218.90099,143.779c2.684,2.614 6.811,3.983 9.5,1.89c2.958,-2.302 1.96,-7.308 -0.66,-10.545c-2.65,-3.276 -8.148,-3.271 -10.521,0.241c-1.893,2.799 -0.717,6.077 1.681,8.414z" fill="#000000"/><path d="M227.74099,135.124c2.62,3.237 3.618,8.243 0.66,10.545c-2.689,2.093 -6.816,0.724 -9.5,-1.89c-2.398,-2.337 -3.574,-5.615 -1.682,-8.414c2.374,-3.512 7.872,-3.517 10.522,-0.241z" fill="#ffffff"/><path d="M218.89299,142.252c-1.80155,0 -3.262,-1.21689 -3.262,-2.718c0,-1.50111 1.46045,-2.718 3.262,-2.718c1.80155,0 3.262,1.21689 3.262,2.718c0,1.50111 -1.46045,2.718 -3.262,2.718z" fill="#000000"/></g><g data-paper-data="{&quot;index&quot;:null}" stroke="none" stroke-width="1"><path d="M200.84999,132.507c-0.512,0.062 -1.281,-0.347 -1.756,-0.549c-1.885,-0.801 -5.771,-0.991 -7.102,-2.04c-0.148,-0.119 -0.191,-0.457 -0.089,-0.615c0.854,-1.289 7.931,1.89 8.878,2.771c0.112,0.099 0.123,0.307 0.069,0.433z" fill="#000000"/><path d="M197.02699,130.974c2.222,-0.105 5.229,1.303 6.239,3.419c3.632,7.617 -7.2,15.185 -12.246,7.548c-2.951,-4.467 0.964,-10.729 6.007,-10.967zM193.86699,141.517c5.043,3.682 10.304,-3.235 7.206,-6.642c-2.211,-2.431 -5.334,-2.145 -7.027,0.168c-1.536,2.098 -2.046,5.111 -0.179,6.474z" fill="#000000"/><path d="M201.07299,134.875c3.098,3.407 -2.163,10.324 -7.206,6.642c-1.867,-1.363 -1.356,-4.376 0.179,-6.474c1.693,-2.313 4.816,-2.599 7.027,-0.168z" fill="#ffffff"/><path d="M193.91199,139.988c-1.33487,0 -2.417,-0.9017 -2.417,-2.014c0,-1.1123 1.08213,-2.014 2.417,-2.014c1.33487,0 2.417,0.9017 2.417,2.014c0,1.1123 -1.08213,2.014 -2.417,2.014z" fill="#000000"/></g></g></g></svg>